<?xml version="1.0" encoding="utf-8"?>
<!-- Generator: Adobe Illustrator 26.0.0, SVG Export Plug-In . SVG Version: 6.00 Build 0)  -->
<svg version="1.1" id="Layer_1" xmlns="http://www.w3.org/2000/svg" xmlns:xlink="http://www.w3.org/1999/xlink" x="0px" y="0px"
	 viewBox="0 0 55.9 55.9" style="enable-background:new 0 0 55.9 55.9;" xml:space="preserve">
<style type="text/css">
	.st0{fill:#FFFFFF;}
	.st1{fill:#1977F3;}
</style>
<g>
	<rect x="11.8" y="6.3" class="st0" width="31.1" height="49.6"/>
	<path class="st1" d="M55.9,10.4v35c0,5.8-4.6,10.4-10.4,10.5c0,0,0,0,0,0H31.9V35h6.9l1.5-8.5h-8.4v-5.9c0-0.8,0.2-1.5,0.7-2.2l0,0
		c0.1-0.2,0.2-0.3,0.3-0.4c0.3-0.3,0.6-0.6,1-0.8c1.1-0.6,2.4-0.9,3.6-0.9c0.5,0,1.1,0,1.5,0h1.3V8.6c-1-0.1-2-0.2-3.1-0.2
		c-1.6-0.1-3.2,0-4.8,0.1c-5.4,0.1-9.8,4.5-9.9,9.9v1.1l0,0c0,0.3,0,0.6,0,0.9v6.2h-6.1V35h6.1v20.9H10.4C4.7,55.9,0,51.2,0,45.5
		v-35C0,4.7,4.6,0,10.4,0c0,0,0,0,0,0h35C51.2,0,55.8,4.6,55.9,10.4C55.9,10.4,55.9,10.4,55.9,10.4z"/>
</g>
</svg>
