<svg id="Layer_1" data-name="Layer 1" xmlns="http://www.w3.org/2000/svg" viewBox="0 0 55.87 55.87"><defs><style>.cls-1{fill:#1a1e24;}</style></defs><path class="cls-1" d="M55.87,10.41v35A10.43,10.43,0,0,1,45.45,55.87H31.85V35h6.88l1.51-8.52H31.85V20.61a3.86,3.86,0,0,1,.66-2.19h0a4.54,4.54,0,0,1,.34-.43,5.69,5.69,0,0,1,1-.82,7.64,7.64,0,0,1,3.62-.85c.48,0,1.08,0,1.55,0h1.3V8.57c-1-.11-2-.18-3.07-.22a41.61,41.61,0,0,0-4.8.08,10.06,10.06,0,0,0-9.85,9.91v1.08l0,0c0,.3,0,.61,0,.92v6.17H16.48V35h6.11V55.87H10.41A10.42,10.42,0,0,1,0,45.45v-35A10.41,10.41,0,0,1,10.41,0h35A10.42,10.42,0,0,1,55.87,10.41Z"/></svg>