<svg id="Layer_1" data-name="Layer 1" xmlns="http://www.w3.org/2000/svg" viewBox="0 0 55.87 55.87"><defs><style>.cls-1{fill:#1a1e24;}</style></defs><path class="cls-1" d="M45.38,0H10.47A10.47,10.47,0,0,0,0,10.47V45.38A10.48,10.48,0,0,0,10.47,55.87H45.38A10.48,10.48,0,0,0,55.87,45.38V10.47A10.48,10.48,0,0,0,45.38,0ZM46,38a8,8,0,0,1-8,8H17.82a8,8,0,0,1-8-8V17.82a8,8,0,0,1,8-8H38a8,8,0,0,1,8,8ZM32.87,27.93A4.94,4.94,0,1,1,27.93,23,4.94,4.94,0,0,1,32.87,27.93ZM36.27,13H19.6A6.59,6.59,0,0,0,13,19.6V36.27a6.59,6.59,0,0,0,6.58,6.58H36.27a6.6,6.6,0,0,0,6.58-6.58V19.6A6.59,6.59,0,0,0,36.27,13ZM27.93,36.16a8.23,8.23,0,1,1,8.23-8.23A8.23,8.23,0,0,1,27.93,36.16Zm9.43-16A1.65,1.65,0,1,1,39,18.5,1.64,1.64,0,0,1,37.36,20.15Z"/></svg>