<svg id="Layer_1" data-name="Layer 1" xmlns="http://www.w3.org/2000/svg" viewBox="0 0 55.87 55.86"><defs><style>.cls-1{fill:#1a1e24;}</style></defs><path id="Layer_2" data-name="Layer 2" class="cls-1" d="M23.89,18.74a4.05,4.05,0,1,1,4,4.07A4,4,0,0,1,23.89,18.74Zm32-8.3v35A10.44,10.44,0,0,1,45.42,55.86h-35A10.44,10.44,0,0,1,0,45.42v-35A10.45,10.45,0,0,1,10.45,0h35A10.45,10.45,0,0,1,55.87,10.44Zm-37,8.38a9.08,9.08,0,1,0,9.07-9.14A9.12,9.12,0,0,0,18.86,18.82ZM40,31.29,37.57,28c-.31-.44-.51-.46-.92-.12a16,16,0,0,1-2.94,1.95A12.25,12.25,0,0,1,25.42,31a14.1,14.1,0,0,1-6.17-3.1c-.43-.35-.63-.33-.95.12l-2.42,3.3c-.3.41-.27.58.11.88a18.56,18.56,0,0,0,6.74,3.39l.59.16c-.07.11-.11.21-.16.29L21,39.86c-1,1.84-2.09,3.67-3.13,5.52-.25.44-.06.78.46.8h.08c1.69,0,3.37,0,5.06,0a.68.68,0,0,0,.71-.47c1.16-2.61,2.34-5.2,3.5-7.8.09-.21.19-.41.31-.66l.17.36q1.82,4,3.62,8.07a.73.73,0,0,0,.76.5c1.67,0,3.35,0,5,0,.63,0,.82-.33.52-.87q-2.66-4.64-5.3-9.3l-.16-.3.1,0,.26-.07a18.83,18.83,0,0,0,7-3.45C40.26,31.85,40.29,31.66,40,31.29Z"/></svg>