<?xml version="1.0" encoding="utf-8"?>
<!-- Generator: Adobe Illustrator 26.0.0, SVG Export Plug-In . SVG Version: 6.00 Build 0)  -->
<svg version="1.1" id="Layer_1" xmlns="http://www.w3.org/2000/svg" xmlns:xlink="http://www.w3.org/1999/xlink" x="0px" y="0px"
	 viewBox="0 0 55.9 55.9" style="enable-background:new 0 0 55.9 55.9;" xml:space="preserve">
<style type="text/css">
	.st0{fill:#FFFFFF;}
	.st1{fill:#FF7701;}
</style>
<g>
	<rect x="11.9" y="6.5" class="st0" width="32.2" height="42.9"/>
	<path id="Layer_2_00000096024523339412602310000013007273397686146738_" class="st1" d="M23.9,18.7c0-2.2,1.8-4,4.1-4
		c2.2,0,4,1.8,4,4.1c0,2.2-1.8,4-4.1,4l0,0C25.7,22.8,23.9,21,23.9,18.7C23.9,18.8,23.9,18.8,23.9,18.7z M55.9,10.4v35
		c0,5.8-4.7,10.4-10.5,10.4l0,0h-35C4.7,55.8,0,51.2,0,45.4v-35C0,4.7,4.7,0,10.4,0h35C51.2,0,55.9,4.7,55.9,10.4L55.9,10.4z
		 M18.9,18.8c0,5,4.1,9.1,9.1,9s9.1-4.1,9-9.1c0-5-4.1-9-9.1-9C22.9,9.7,18.8,13.8,18.9,18.8L18.9,18.8L18.9,18.8z M40,31.3L37.6,28
		c-0.3-0.4-0.5-0.5-0.9-0.1c-0.9,0.8-1.9,1.4-2.9,2c-2.5,1.4-5.5,1.8-8.3,1.2c-2.3-0.5-4.4-1.6-6.2-3.1c-0.4-0.4-0.6-0.3-1,0.1
		l-2.4,3.3c-0.3,0.4-0.3,0.6,0.1,0.9c2,1.6,4.3,2.7,6.7,3.4l0.6,0.2c-0.1,0.1-0.1,0.2-0.2,0.3L21,39.9c-1,1.8-2.1,3.7-3.1,5.5
		c-0.2,0.4-0.1,0.8,0.5,0.8h0.1c1.7,0,3.4,0,5.1,0c0.3,0,0.6-0.2,0.7-0.5c1.2-2.6,2.3-5.2,3.5-7.8c0.1-0.2,0.2-0.4,0.3-0.7l0.2,0.4
		c1.2,2.7,2.4,5.4,3.6,8.1c0.1,0.3,0.4,0.5,0.8,0.5c1.7,0,3.3,0,5,0c0.6,0,0.8-0.3,0.5-0.9c-1.8-3.1-3.5-6.2-5.3-9.3l-0.2-0.3h0.1
		l0.3-0.1c2.5-0.6,4.9-1.8,7-3.5C40.3,31.9,40.3,31.7,40,31.3z"/>
</g>
</svg>
