<?xml version="1.0" encoding="utf-8"?>
<!-- Generator: Adobe Illustrator 26.0.0, SVG Export Plug-In . SVG Version: 6.00 Build 0)  -->
<svg version="1.1" id="Layer_1" xmlns="http://www.w3.org/2000/svg" xmlns:xlink="http://www.w3.org/1999/xlink" x="0px" y="0px"
	 viewBox="0 0 55.9 55.9" style="enable-background:new 0 0 55.9 55.9;" xml:space="preserve">
<style type="text/css">
	.st0{fill:#FFFFFF;}
	.st1{fill:#039BE5;}
</style>
<g>
	<rect x="6.2" y="8.3" class="st0" width="41.4" height="37.8"/>
	<path class="st1" d="M45.4,0H10.5C4.7,0,0,4.7,0,10.5l0,0v34.9c0,5.8,4.7,10.5,10.5,10.5l0,0h34.9c5.8,0,10.5-4.7,10.5-10.5V10.5
		C55.9,4.7,51.2,0,45.4,0L45.4,0z M44.4,15.6c-1,6.7-2.9,18.9-3.9,25.4c-0.2,1.4-1.6,2.4-3,2.2l0,0c-0.4-0.1-0.8-0.2-1.2-0.5
		l-11.5-8.5c-0.8-0.6-0.9-1.7-0.4-2.5c0.1-0.1,0.1-0.2,0.2-0.2l10.7-10.2c0.2-0.2,0.2-0.4,0-0.6l0,0c-0.2-0.2-0.4-0.2-0.6-0.1
		L20.6,30c-1.2,0.8-2.7,1.1-4.2,0.7L9.7,29c-0.9-0.2-1.5-1.2-1.3-2.1c0.1-0.5,0.5-1,1-1.2c8-3.3,23.7-9.8,31.3-12.9
		c1.4-0.6,2.9,0.1,3.5,1.4C44.4,14.6,44.5,15.1,44.4,15.6L44.4,15.6z"/>
</g>
</svg>
