<svg id="Layer_1" data-name="Layer 1" xmlns="http://www.w3.org/2000/svg" viewBox="0 0 55.87 55.87"><defs><style>.cls-1{fill:#1a1e24;}</style></defs><path class="cls-1" d="M45.38,0H10.47A10.47,10.47,0,0,0,0,10.47v34.9a10.48,10.48,0,0,0,10.47,10.5H45.38a10.49,10.49,0,0,0,10.49-10.5V10.47A10.48,10.48,0,0,0,45.38,0ZM40,39.56c-1.42-4.42-5-7.85-9.64-8.31v8.31H29.6c-12.73,0-20-8.72-20.3-23.25h6.38C15.89,27,20.6,31.49,24.32,32.42V16.31h6V25.5c3.68-.39,7.55-4.58,8.85-9.19h6A17.72,17.72,0,0,1,37,27.9a18.37,18.37,0,0,1,9.57,11.66Z"/></svg>