<?xml version="1.0" encoding="utf-8"?>
<!-- Generator: Adobe Illustrator 26.0.0, SVG Export Plug-In . SVG Version: 6.00 Build 0)  -->
<svg version="1.1" id="Layer_1" xmlns="http://www.w3.org/2000/svg" xmlns:xlink="http://www.w3.org/1999/xlink" x="0px" y="0px"
	 viewBox="0 0 55.9 55.9" style="enable-background:new 0 0 55.9 55.9;" xml:space="preserve">
<style type="text/css">
	.st0{fill:#0077FF;}
	.st1{fill:#FFFFFF;}
</style>
<g>
	<path class="st0" d="M55.9,10.5v34.9c0,5.8-4.7,10.5-10.5,10.5H10.5C4.7,55.9,0,51.2,0,45.4V10.5C0,4.7,4.7,0,10.5,0h34.9
		C51.2,0,55.9,4.7,55.9,10.5z"/>
	<path class="st1" d="M29.6,39.6c-12.7,0-20-8.7-20.3-23.3h6.4c0.2,10.7,4.9,15.2,8.6,16.1V16.3h6v9.2c3.7-0.4,7.5-4.6,8.8-9.2h6
		c-1,5.7-5.2,9.9-8.2,11.6c3,1.4,7.8,5.1,9.6,11.7H40c-1.4-4.4-5-7.8-9.6-8.3v8.3H29.6z"/>
</g>
</svg>
