<?xml version="1.0" encoding="utf-8"?>
<!-- Generator: Adobe Illustrator 26.0.0, SVG Export Plug-In . SVG Version: 6.00 Build 0)  -->
<svg version="1.1" id="Layer_1" xmlns="http://www.w3.org/2000/svg" xmlns:xlink="http://www.w3.org/1999/xlink" x="0px" y="0px"
	 viewBox="0 0 55.9 55.9" style="enable-background:new 0 0 55.9 55.9;" xml:space="preserve">
<style type="text/css">
	.st0{fill:#FFFFFF;}
	.st1{fill:#FF0000;}
</style>
<g>
	<rect x="7.8" y="12.7" class="st0" width="40.3" height="30.5"/>
	<path class="st1" d="M24.5,22.7l9.1,5.2l-9.1,5.2C24.5,33.1,24.5,22.7,24.5,22.7z M55.9,10.7v34.5c0,5.9-4.8,10.7-10.7,10.7l0,0
		H10.6C4.8,55.9,0,51.1,0,45.2l0,0V10.6C0,4.8,4.8,0,10.6,0h34.6C51.1,0,55.9,4.8,55.9,10.7C55.9,10.6,55.9,10.6,55.9,10.7
		L55.9,10.7z M44.7,19.6c-0.4-1.5-1.6-2.7-3.1-3.1c-2.7-0.8-13.7-0.8-13.7-0.8s-10.9,0-13.7,0.7c-1.5,0.4-2.7,1.6-3.1,3.1
		c-0.5,2.8-0.7,5.6-0.7,8.4s0.2,5.6,0.7,8.4c0.4,1.5,1.6,2.7,3.1,3.1c2.8,0.7,13.7,0.7,13.7,0.7s10.9,0,13.7-0.7
		c1.5-0.4,2.7-1.6,3.1-3.1c0.5-2.8,0.7-5.6,0.7-8.4C45.4,28,45.4,22.3,44.7,19.6L44.7,19.6z"/>
</g>
</svg>
