<svg id="Layer_1" data-name="Layer 1" xmlns="http://www.w3.org/2000/svg" viewBox="0 0 241.67 34.94"><defs><style>.cls-1{fill:#1d1d1b;}</style></defs><path class="cls-1" d="M23.84,14.38l-.77,5.22H26.4v5.88H22.1l-1.44,9.17H14l1.5-9.17H9.94L8.49,34.65H1.88l1.45-9.17H0V19.6H4.3l.77-5.22H1.69V8.54H6L7.34,0H14L12.6,8.54h5.6L19.55,0h6.56l-1.3,8.54h3.33v5.84Zm-12.16,0-.82,5.22h5.6l.77-5.22Z"/><path class="cls-1" d="M52.22,34.65,45.51,21H40.68v13.7H34V.29H47.44c7,0,11.15,4.78,11.15,10.52a9.26,9.26,0,0,1-6.28,9L60,34.65ZM47,6.27H40.68v9.08H47c3,0,4.88-1.88,4.88-4.54S50,6.27,47,6.27Z"/><path class="cls-1" d="M77.16,34.94c-7,0-12.64-4.77-12.64-12.06V.29h6.71V22.64c0,3.95,2.31,6.32,5.93,6.32s6-2.37,6-6.32V.29h6.66V22.88C89.81,30.17,84.21,34.94,77.16,34.94Z"/><path class="cls-1" d="M106.26,34.94c-5.21,0-9.17-1.11-12.55-4.53l4.35-4.35c2.17,2.17,5.11,2.9,8.3,2.9,4,0,6.08-1.5,6.08-4.25a3.81,3.81,0,0,0-1.06-2.89,5.11,5.11,0,0,0-3-1.21L104.19,20a11.57,11.57,0,0,1-6.66-2.85,9.08,9.08,0,0,1-2.46-6.76C95.07,4.3,99.6,0,107,0c4.72,0,8.15,1.16,11.1,4l-4.25,4.2c-2.17-2.08-4.78-2.37-7-2.37-3.57,0-5.31,2-5.31,4.34a3.32,3.32,0,0,0,1,2.47A6,6,0,0,0,105.73,14l4.06.58c3.13.43,5.11,1.3,6.56,2.65C118.18,19,119,21.48,119,24.52,119,31.18,113.45,34.94,106.26,34.94Z"/><path class="cls-1" d="M143.18,34.65V20.27H131.55V34.65h-6.71V.29h6.71v14h11.63V.29h6.71V34.65Z"/><path class="cls-1" d="M177,34.65l-2-6.08H162.72l-2.07,6.08h-7L166.15.29h5.26L184,34.65Zm-8-24.23L164.6,22.93h8.55Z"/><path class="cls-1" d="M199.83,34.94c-7,0-12.64-4.77-12.64-12.06V.29h6.7V22.64c0,3.95,2.32,6.32,5.94,6.32s6-2.37,6-6.32V.29h6.66V22.88C212.48,30.17,206.88,34.94,199.83,34.94Z"/><path class="cls-1" d="M228.93,34.94c-5.21,0-9.17-1.11-12.55-4.53l4.35-4.35c2.17,2.17,5.11,2.9,8.3,2.9,3.95,0,6.08-1.5,6.08-4.25a3.81,3.81,0,0,0-1.06-2.89,5.11,5.11,0,0,0-3-1.21L226.85,20a11.63,11.63,0,0,1-6.66-2.85,9.08,9.08,0,0,1-2.46-6.76c0-6.12,4.54-10.42,12-10.42,4.73,0,8.16,1.16,11.1,4l-4.24,4.2a9.56,9.56,0,0,0-7.05-2.37c-3.57,0-5.31,2-5.31,4.34a3.35,3.35,0,0,0,1,2.47A6.05,6.05,0,0,0,228.4,14l4,.58c3.14.43,5.12,1.3,6.57,2.65,1.83,1.74,2.65,4.25,2.65,7.29C241.67,31.18,236.12,34.94,228.93,34.94Z"/></svg>